<?xml version="1.0" encoding="utf-8"?>
<!-- Generator: Adobe Illustrator 16.0.0, SVG Export Plug-In . SVG Version: 6.00 Build 0)  -->
<!DOCTYPE svg PUBLIC "-//W3C//DTD SVG 1.1//EN" "http://www.w3.org/Graphics/SVG/1.1/DTD/svg11.dtd">
<svg version="1.1" id="Ebene_1" xmlns="http://www.w3.org/2000/svg" x="0px" y="0px"
	 width="443.333px" height="94px" viewBox="0 0 443.333 94" enable-background="new 0 0 443.333 94"
	 xml:space="preserve">
<g>
	<path d="M39.912,17.04c2.757,0,5.195,0.627,7.313,1.883c2.117,1.256,3.792,2.992,5.023,5.208c1.23,2.216,1.847,4.753,1.847,7.608
		c0,2.856-0.616,5.429-1.847,7.719c-1.231,2.289-2.906,4.1-5.023,5.43c-2.118,1.329-4.555,1.994-7.313,1.994h-15.66l0.37-0.739
		v20.389c0,0.59-0.222,1.107-0.665,1.551s-0.96,0.664-1.551,0.664c-0.69,0-1.231-0.221-1.625-0.664
		c-0.395-0.443-0.591-0.961-0.591-1.551V19.256c0-0.591,0.222-1.108,0.665-1.552c0.443-0.443,0.96-0.664,1.551-0.664H39.912z
		 M39.912,42.597c1.92,0,3.594-0.479,5.023-1.439c1.427-0.961,2.548-2.265,3.361-3.915c0.813-1.649,1.219-3.483,1.219-5.503
		s-0.406-3.805-1.219-5.355s-1.934-2.77-3.361-3.656c-1.429-0.887-3.103-1.33-5.023-1.33h-15.66l0.37-0.664V43.04l-0.443-0.443
		H39.912z"/>
	<path d="M93.391,31.001c0.639,0,1.169,0.221,1.588,0.664c0.418,0.443,0.628,0.986,0.628,1.625v33.241
		c0,0.59-0.222,1.107-0.665,1.551c-0.443,0.443-0.96,0.664-1.551,0.664c-0.69,0-1.232-0.221-1.625-0.664
		c-0.395-0.443-0.591-0.961-0.591-1.551v-8.792l1.256-0.59c0,1.379-0.382,2.781-1.145,4.209c-0.764,1.43-1.81,2.759-3.139,3.991
		c-1.33,1.23-2.894,2.229-4.69,2.99c-1.798,0.764-3.756,1.145-5.873,1.145c-3.299,0-6.267-0.859-8.9-2.584
		c-2.635-1.723-4.703-4.089-6.205-7.093c-1.502-3.003-2.253-6.377-2.253-10.119c0-3.842,0.763-7.227,2.29-10.156
		c1.526-2.93,3.594-5.232,6.205-6.906c2.61-1.674,5.54-2.512,8.79-2.512c2.117,0,4.1,0.369,5.946,1.107s3.459,1.749,4.838,3.029
		c1.378,1.281,2.462,2.745,3.25,4.395c0.787,1.65,1.182,3.361,1.182,5.134l-1.551-1.108V33.29c0-0.639,0.196-1.182,0.591-1.625
		C92.159,31.222,92.701,31.001,93.391,31.001z M78.027,65.35c2.609,0,4.924-0.678,6.943-2.033c2.019-1.354,3.607-3.225,4.764-5.614
		c1.157-2.387,1.736-5.059,1.736-8.014c0-2.905-0.579-5.515-1.736-7.83c-1.157-2.314-2.746-4.16-4.764-5.539
		c-2.02-1.379-4.334-2.068-6.943-2.068c-2.561,0-4.864,0.664-6.906,1.994c-2.044,1.329-3.645,3.152-4.801,5.466
		c-1.158,2.315-1.736,4.974-1.736,7.978c0,2.955,0.565,5.627,1.699,8.014c1.132,2.39,2.72,4.261,4.764,5.614
		C73.089,64.672,75.416,65.35,78.027,65.35z"/>
	<path d="M109.419,68.746c-0.69,0-1.231-0.221-1.625-0.664c-0.395-0.443-0.591-0.961-0.591-1.551V33.438
		c0-0.592,0.209-1.108,0.628-1.552c0.417-0.443,0.947-0.665,1.588-0.665c0.64,0,1.169,0.222,1.588,0.665
		c0.417,0.443,0.627,0.96,0.627,1.552v11.079l-1.108,0.222c0.148-1.723,0.578-3.435,1.293-5.134c0.713-1.698,1.686-3.261,2.917-4.69
		c1.23-1.428,2.696-2.585,4.395-3.472c1.699-0.886,3.607-1.329,5.725-1.329c0.886,0,1.748,0.185,2.585,0.554
		c0.836,0.369,1.255,0.974,1.255,1.81c0,0.738-0.197,1.306-0.591,1.699c-0.395,0.395-0.862,0.591-1.403,0.591
		c-0.443,0-0.923-0.122-1.44-0.37c-0.517-0.245-1.195-0.369-2.031-0.369c-1.379,0-2.758,0.406-4.137,1.219
		c-1.379,0.813-2.635,1.91-3.767,3.287c-1.133,1.38-2.031,2.918-2.696,4.617c-0.665,1.699-0.998,3.41-0.998,5.133v18.247
		c0,0.59-0.221,1.107-0.665,1.551S110.01,68.746,109.419,68.746z"/>
	<path d="M165.409,31.001c0.64,0,1.169,0.221,1.588,0.664c0.418,0.443,0.628,0.986,0.628,1.625v33.241
		c0,0.59-0.221,1.107-0.664,1.551s-0.961,0.664-1.552,0.664c-0.689,0-1.231-0.221-1.625-0.664c-0.395-0.443-0.591-0.961-0.591-1.551
		v-8.792l1.256-0.59c0,1.379-0.382,2.781-1.145,4.209c-0.765,1.43-1.811,2.759-3.14,3.991c-1.33,1.23-2.894,2.229-4.69,2.99
		c-1.798,0.764-3.756,1.145-5.873,1.145c-3.299,0-6.267-0.859-8.9-2.584c-2.635-1.723-4.703-4.089-6.205-7.093
		c-1.502-3.003-2.253-6.377-2.253-10.119c0-3.842,0.763-7.227,2.29-10.156c1.526-2.93,3.594-5.232,6.205-6.906
		c2.61-1.674,5.54-2.512,8.79-2.512c2.117,0,4.1,0.369,5.946,1.107s3.459,1.749,4.838,3.029c1.378,1.281,2.462,2.745,3.25,4.395
		c0.787,1.65,1.183,3.361,1.183,5.134l-1.552-1.108V33.29c0-0.639,0.196-1.182,0.591-1.625
		C164.177,31.222,164.719,31.001,165.409,31.001z M150.045,65.35c2.609,0,4.924-0.678,6.943-2.033
		c2.019-1.354,3.607-3.225,4.764-5.614c1.156-2.387,1.736-5.059,1.736-8.014c0-2.905-0.58-5.515-1.736-7.83
		c-1.157-2.314-2.746-4.16-4.764-5.539c-2.02-1.379-4.334-2.068-6.943-2.068c-2.561,0-4.864,0.664-6.906,1.994
		c-2.044,1.329-3.645,3.152-4.801,5.466c-1.158,2.315-1.736,4.974-1.736,7.978c0,2.955,0.565,5.627,1.699,8.014
		c1.132,2.39,2.72,4.261,4.764,5.614C145.107,64.672,147.434,65.35,150.045,65.35z"/>
	<path d="M196.209,30.705c3.053,0,5.662,0.801,7.83,2.4c2.166,1.601,3.644,3.978,4.432,7.128l-1.034,0.295l0.443-1.329
		c0.64-1.478,1.711-2.868,3.213-4.173s3.214-2.352,5.134-3.14c1.921-0.787,3.865-1.182,5.836-1.182c3.102,0,5.601,0.665,7.497,1.994
		c1.895,1.329,3.274,3.115,4.137,5.355c0.86,2.241,1.292,4.765,1.292,7.571v20.905c0,0.59-0.21,1.107-0.628,1.551
		c-0.419,0.443-0.948,0.664-1.588,0.664c-0.641,0-1.17-0.221-1.588-0.664c-0.419-0.443-0.628-0.961-0.628-1.551V45.847
		c0-2.018-0.321-3.865-0.96-5.539c-0.641-1.674-1.65-3.004-3.028-3.988c-1.38-0.985-3.227-1.479-5.54-1.479
		c-2.021,0-3.952,0.493-5.799,1.479c-1.847,0.984-3.35,2.314-4.506,3.988c-1.157,1.674-1.735,3.521-1.735,5.539v20.685
		c0,0.59-0.21,1.107-0.628,1.551c-0.419,0.443-0.949,0.664-1.589,0.664s-1.17-0.221-1.588-0.664
		c-0.419-0.443-0.628-0.961-0.628-1.551V45.626c0-2.02-0.295-3.842-0.886-5.467s-1.552-2.917-2.881-3.877
		c-1.33-0.961-3.128-1.441-5.393-1.441c-2.02,0-3.928,0.48-5.725,1.441c-1.798,0.96-3.25,2.252-4.357,3.877
		c-1.108,1.625-1.662,3.447-1.662,5.467v20.905c0,0.59-0.222,1.107-0.665,1.551s-0.96,0.664-1.551,0.664
		c-0.69,0-1.231-0.221-1.625-0.664c-0.396-0.443-0.592-0.961-0.592-1.551V33.438c0-0.592,0.209-1.108,0.628-1.552
		c0.418-0.443,0.948-0.665,1.589-0.665c0.639,0,1.169,0.222,1.588,0.665c0.418,0.443,0.628,0.96,0.628,1.552v6.869l-1.995,2.732
		c0.148-1.477,0.628-2.954,1.44-4.432c0.813-1.477,1.884-2.807,3.214-3.988c1.329-1.182,2.844-2.13,4.542-2.844
		C192.553,31.063,194.337,30.705,196.209,30.705z"/>
	<path d="M263.352,69.484c-3.791,0-7.141-0.813-10.045-2.438c-2.906-1.625-5.17-3.89-6.795-6.796
		c-1.625-2.904-2.438-6.303-2.438-10.193c0-4.186,0.824-7.756,2.475-10.711c1.649-2.954,3.792-5.231,6.426-6.832
		c2.633-1.6,5.43-2.4,8.383-2.4c2.166,0,4.271,0.382,6.316,1.145c2.043,0.764,3.852,1.896,5.43,3.398
		c1.574,1.502,2.854,3.336,3.84,5.502c0.984,2.168,1.502,4.68,1.551,7.535c0,0.59-0.221,1.096-0.664,1.514
		c-0.443,0.419-0.961,0.628-1.551,0.628h-29.621l-0.887-3.989h29.103l-0.959,0.887v-1.477c-0.248-2.314-1.012-4.285-2.291-5.91
		c-1.281-1.625-2.818-2.855-4.617-3.693c-1.797-0.836-3.682-1.256-5.65-1.256c-1.477,0-2.99,0.297-4.543,0.887
		c-1.551,0.592-2.953,1.515-4.209,2.771c-1.256,1.255-2.279,2.856-3.066,4.802s-1.182,4.246-1.182,6.906
		c0,2.906,0.592,5.539,1.773,7.903c1.182,2.363,2.881,4.235,5.096,5.613c2.217,1.381,4.9,2.07,8.053,2.07
		c1.672,0,3.199-0.246,4.578-0.74c1.379-0.492,2.598-1.145,3.656-1.958c1.059-0.813,1.934-1.662,2.623-2.548
		c0.541-0.443,1.059-0.665,1.551-0.665c0.541,0,0.998,0.197,1.367,0.591c0.369,0.396,0.553,0.838,0.553,1.329
		c0,0.592-0.246,1.109-0.738,1.552c-1.477,1.773-3.396,3.313-5.762,4.617C268.744,68.832,266.16,69.484,263.352,69.484z"/>
	<path d="M285.217,31.147h17.211c0.59,0,1.082,0.211,1.477,0.629s0.592,0.923,0.592,1.514c0,0.543-0.197,1.01-0.592,1.404
		s-0.887,0.59-1.477,0.59h-17.211c-0.592,0-1.096-0.209-1.514-0.627c-0.42-0.418-0.629-0.898-0.629-1.441
		c0-0.59,0.209-1.082,0.629-1.477C284.121,31.345,284.625,31.147,285.217,31.147z M292.824,20.733c0.641,0,1.17,0.221,1.588,0.664
		s0.629,0.961,0.629,1.552v37.08c0,1.38,0.184,2.413,0.555,3.103c0.369,0.69,0.848,1.145,1.439,1.368
		c0.592,0.221,1.182,0.332,1.773,0.332c0.393,0,0.75-0.061,1.07-0.186c0.32-0.121,0.676-0.184,1.07-0.184
		c0.443,0,0.824,0.172,1.146,0.516c0.318,0.346,0.479,0.789,0.479,1.33c0,0.691-0.395,1.27-1.182,1.736
		c-0.787,0.469-1.725,0.701-2.807,0.701c-0.443,0-1.107-0.037-1.994-0.109c-0.887-0.074-1.799-0.346-2.732-0.813
		c-0.936-0.469-1.713-1.293-2.328-2.475c-0.615-1.184-0.922-2.882-0.922-5.099V22.949c0-0.591,0.209-1.108,0.627-1.552
		S292.184,20.733,292.824,20.733z"/>
	<path d="M329.092,69.484c-3.791,0-7.141-0.813-10.045-2.438c-2.906-1.625-5.17-3.89-6.795-6.796
		c-1.625-2.904-2.438-6.303-2.438-10.193c0-4.186,0.824-7.756,2.475-10.711c1.648-2.954,3.791-5.231,6.426-6.832
		c2.633-1.6,5.43-2.4,8.383-2.4c2.166,0,4.271,0.382,6.316,1.145c2.043,0.764,3.852,1.896,5.43,3.398
		c1.574,1.502,2.854,3.336,3.84,5.502c0.984,2.168,1.502,4.68,1.551,7.535c0,0.59-0.221,1.096-0.664,1.514
		c-0.443,0.419-0.961,0.628-1.551,0.628h-29.621l-0.887-3.989h29.104l-0.959,0.887v-1.477c-0.248-2.314-1.012-4.285-2.291-5.91
		c-1.281-1.625-2.818-2.855-4.617-3.693c-1.797-0.836-3.682-1.256-5.65-1.256c-1.477,0-2.99,0.297-4.543,0.887
		c-1.551,0.592-2.953,1.515-4.209,2.771c-1.256,1.255-2.279,2.856-3.066,4.802s-1.182,4.246-1.182,6.906
		c0,2.906,0.592,5.539,1.773,7.903c1.182,2.363,2.881,4.235,5.096,5.613c2.217,1.381,4.9,2.07,8.053,2.07
		c1.672,0,3.199-0.246,4.578-0.74c1.379-0.492,2.598-1.145,3.656-1.958c1.059-0.813,1.934-1.662,2.623-2.548
		c0.541-0.443,1.059-0.665,1.551-0.665c0.541,0,0.998,0.197,1.367,0.591c0.369,0.396,0.553,0.838,0.553,1.329
		c0,0.592-0.246,1.109-0.738,1.552c-1.477,1.773-3.396,3.313-5.762,4.617C334.484,68.832,331.9,69.484,329.092,69.484z"/>
	<path d="M355.611,68.746c-0.691,0-1.232-0.221-1.625-0.664c-0.396-0.443-0.592-0.961-0.592-1.551V33.438
		c0-0.592,0.209-1.108,0.627-1.552s0.949-0.665,1.59-0.665c0.639,0,1.168,0.222,1.588,0.665c0.418,0.443,0.627,0.96,0.627,1.552
		v11.079l-1.107,0.222c0.146-1.723,0.578-3.435,1.293-5.134c0.713-1.698,1.686-3.261,2.918-4.69
		c1.229-1.428,2.695-2.585,4.395-3.472c1.699-0.886,3.605-1.329,5.725-1.329c0.887,0,1.746,0.185,2.584,0.554
		s1.256,0.974,1.256,1.81c0,0.738-0.197,1.306-0.59,1.699c-0.395,0.395-0.863,0.591-1.404,0.591c-0.443,0-0.924-0.122-1.439-0.37
		c-0.518-0.245-1.195-0.369-2.031-0.369c-1.379,0-2.76,0.406-4.137,1.219c-1.379,0.813-2.635,1.91-3.768,3.287
		c-1.133,1.38-2.031,2.918-2.695,4.617c-0.666,1.699-0.998,3.41-0.998,5.133v18.247c0,0.59-0.221,1.107-0.664,1.551
		S356.201,68.746,355.611,68.746z"/>
	<g>
		<path fill="#FF0000" d="M418.914,11.855c0.99,0,1.783,0.297,2.377,0.891c0.596,0.594,0.893,1.287,0.893,2.08
			c0,0.66-0.199,1.255-0.596,1.783L376.525,76.33l-0.197-0.793h42.488c0.791,0,1.484,0.264,2.078,0.793
			c0.596,0.529,0.893,1.188,0.893,1.98c0,0.791-0.297,1.469-0.893,2.029c-0.594,0.563-1.287,0.842-2.078,0.842h-47.441
			c-0.924,0-1.668-0.33-2.229-0.99c-0.561-0.658-0.842-1.352-0.842-2.08c0-0.658,0.199-1.252,0.596-1.781l44.863-59.227l0.596,0.396
			h-40.508c-0.859,0-1.568-0.28-2.129-0.842c-0.563-0.561-0.842-1.238-0.842-2.03s0.279-1.452,0.842-1.981
			c0.561-0.527,1.27-0.791,2.129-0.791H418.914z"/>
	</g>
</g>
	<g>
</g>
	<g>
</g>
	<g>
</g>
	<g>
</g>
	<g>
</g>
	<g>
</g>
	<g>
</g>
	<g>
</g>
	<g>
</g>
	<g>
</g>
	<g>
</g>
	<g>
</g>
	<g>
</g>
	<g>
</g>
	<g>
</g>
</svg>
